<?xml version="1.0" encoding="UTF-8" standalone="no"?>
<svg
   width="16"
   height="16"
   version="1.1"
   id="svg13"
   sodipodi:docname="titlebutton-close-backdrop.svg"
   inkscape:version="1.4.3 (0d15f75042, 2025-12-25)"
   xmlns:inkscape="http://www.inkscape.org/namespaces/inkscape"
   xmlns:sodipodi="http://sodipodi.sourceforge.net/DTD/sodipodi-0.dtd"
   xmlns="http://www.w3.org/2000/svg"
   xmlns:svg="http://www.w3.org/2000/svg">
  <defs
     id="defs17" />
  <sodipodi:namedview
     id="namedview15"
     pagecolor="#505050"
     bordercolor="#eeeeee"
     borderopacity="1"
     inkscape:pageshadow="0"
     inkscape:pageopacity="0"
     inkscape:pagecheckerboard="0"
     showgrid="false"
     inkscape:zoom="43.375"
     inkscape:cx="8.0461095"
     inkscape:cy="8.0115274"
     inkscape:window-width="1920"
     inkscape:window-height="1006"
     inkscape:window-x="0"
     inkscape:window-y="30"
     inkscape:window-maximized="1"
     inkscape:current-layer="svg13"
     inkscape:showpageshadow="0"
     inkscape:deskcolor="#505050" />
  <rect
     x="0"
     y="-1.4648437e-05"
     width="16"
     height="16"
     ry="1.6931001e-05"
     opacity="0"
     stroke-width="0.47432"
     style="paint-order:markers stroke fill"
     id="rect2" />
  <g
     transform="translate(1,1)"
     enable-background="new"
     id="g8"
     style="fill:#dc6068;fill-opacity:1">
    <g
       transform="translate(-5,-1033.4)"
       fill-rule="evenodd"
       id="g6"
       style="fill:#dc6068;fill-opacity:1">
      <path
         d="m 12,1047.4 c 3.8659,0 6.9999,-3.134 6.9999,-7 0,-3.866 -3.134,-7 -6.9999,-7 -3.866,0 -7.0001,3.134 -7.0001,7 0,3.866 3.134,7 7.0001,7"
         fill="#5d5d5d"
         id="path4"
         style="fill:#dc6068;fill-opacity:1" />
    </g>
  </g>
  <path
     style="fill:#600634;stroke:#600634;stroke-width:0.0230548"
     d="M 7.3659942,14.9624 C 6.8052344,14.905156 6.147061,14.760767 5.6867636,14.594013 4.5704233,14.189592 3.5948235,13.544634 2.8440078,12.714697 1.8241093,11.587323 1.2322364,10.274018 1.046505,8.7262248 1.005831,8.3872676 1.0123533,7.5430356 1.0584387,7.1815562 1.2304014,5.8327343 1.735378,4.6417674 2.5804791,3.5918854 3.6417655,2.2734331 5.2139126,1.366641 6.9048991,1.0976214 c 0.8083874,-0.12860663 1.7636547,-0.10309727 2.558015,0.068309 2.5079729,0.5411677 4.5333129,2.4251329 5.2469019,4.8806522 0.310144,1.0672293 0.359211,2.2551825 0.138227,3.3465847 -0.267825,1.3227417 -0.922853,2.5470547 -1.88217,3.5179647 -1.083753,1.09685 -2.498202,1.804511 -4.0321554,2.017321 -0.3096171,0.04296 -1.274759,0.06385 -1.5677234,0.03395 z"
     id="path1" />
</svg>
